<?xml version="1.0" encoding="UTF-8"?>
<svg id="Layer_1" data-name="Layer 1" xmlns="http://www.w3.org/2000/svg" version="1.1" viewBox="0 0 100 100">
  <defs>
    <style>
      .cls-1 {
        fill: #f1a74a;
      }

      .cls-1, .cls-2 {
        stroke-width: 0px;
      }

      .cls-2 {
        fill: #fff;
      }

      .cls-3 {
        fill: none;
        stroke: #f1a74a;
        stroke-miterlimit: 10;
        stroke-width: .75px;
      }
    </style>
  </defs>
  <circle class="cls-1" cx="50.08" cy="50.01" r="46.53"/>
  <g>
    <path class="cls-2" d="M47.54,52.47s4.64,5.22,4.64,5.22c5.55,6.38,8.01,2.43,12.13.22,1.44-.77,3.24-.39,4.32.83l4.49,5.05c.98,1.1.88,2.78-.22,3.75l-8.28,7.36h0c-3.59,3.19-9.09,2.87-12.28-.72l-12.91-14.51,1.66,1.88-12.75-14.64c-3.16-3.62-2.78-9.12.85-12.27h0s8.36-7.28,8.36-7.28c1.11-.96,2.78-.85,3.75.26l4.44,5.09c1.07,1.23,1.22,3.06.27,4.39-2.71,3.81-6.94,5.75-1.32,12.06,0,0,4.59,5.27,4.59,5.27"/>
    <line class="cls-3" x1="33.5" y1="25.44" x2="73.01" y2="70.33"/>
  </g>
</svg>